<svg xmlns="http://www.w3.org/2000/svg" width="30.35" height="25.924" viewBox="0 0 30.35 25.924">
  <path id="Icon_material-directions-bike" data-name="Icon material-directions-bike" d="M19.6,7.308a2.529,2.529,0,1,0-2.529-2.529A2.537,2.537,0,0,0,19.6,7.308ZM6.323,15.528a6.323,6.323,0,1,0,0,12.646,6.323,6.323,0,1,0,0-12.646Zm0,10.749a4.426,4.426,0,1,1,0-8.852,4.426,4.426,0,1,1,0,8.852Zm7.335-12.646L16.693,10.6,17.7,11.608a8.859,8.859,0,0,0,6.449,2.656V11.734a6.283,6.283,0,0,1-4.553-1.9l-2.4-2.4a3.1,3.1,0,0,0-2.023-.759,2.122,2.122,0,0,0-1.77.759L9.864,10.976a2.5,2.5,0,0,0-.759,1.77,2.122,2.122,0,0,0,.759,1.77l4.047,3.541V24.38H16.44V16.54l-2.782-2.909Zm10.37,1.9a6.323,6.323,0,1,0,6.323,6.323A6.262,6.262,0,0,0,24.027,15.528Zm0,10.749a4.426,4.426,0,1,1,4.426-4.426A4.481,4.481,0,0,1,24.027,26.277Z" transform="translate(0 -2.25)" fill="#78849e"/>
</svg>
