<svg id="Component_55_1" data-name="Component 55 – 1" xmlns="http://www.w3.org/2000/svg" width="32" height="32" viewBox="0 0 32 32">
  <g id="Ellipse_317" data-name="Ellipse 317" fill="#efe498" stroke="#d3d3d3" stroke-width="1">
    <circle cx="16" cy="16" r="16" stroke="none"/>
    <circle cx="16" cy="16" r="15.5" fill="none"/>
  </g>
  <path id="Icon_metro-warning" data-name="Icon metro-warning" d="M11.783,3.6,19.5,18.985H4.062L11.783,3.6Zm0-1.669a1.332,1.332,0,0,0-1.1.8L2.823,18.4c-.6,1.071-.09,1.948,1.139,1.948H19.6c1.229,0,1.742-.876,1.139-1.948h0L12.878,2.731a1.332,1.332,0,0,0-1.1-.8ZM12.934,16.9a1.152,1.152,0,1,1-1.152-1.152A1.152,1.152,0,0,1,12.934,16.9Zm-1.152-2.3a1.152,1.152,0,0,1-1.152-1.152V9.989a1.152,1.152,0,0,1,2.3,0v3.455A1.152,1.152,0,0,1,11.783,14.595Z" transform="translate(4.114 3.648)"/>
</svg>
