<svg xmlns="http://www.w3.org/2000/svg" width="29.447" height="23.556" viewBox="0 0 29.447 23.556">
  <path id="Icon_awesome-hands-helping" data-name="Icon awesome-hands-helping" d="M22.453,8.835H15.459v2.577a3.313,3.313,0,0,1-6.626,0V5.816L5.848,7.611a2.938,2.938,0,0,0-1.431,2.521v2.176L.736,14.434A1.469,1.469,0,0,0,.2,16.445l3.681,6.377a1.473,1.473,0,0,0,2.011.538l4.758-2.747h6.285a2.947,2.947,0,0,0,2.945-2.945h.736A1.471,1.471,0,0,0,22.085,16.2V13.252h.368a1.1,1.1,0,0,0,1.1-1.1V9.939A1.1,1.1,0,0,0,22.453,8.835Zm6.8-1.721L25.568.737A1.473,1.473,0,0,0,23.557.2L18.8,2.945H14.1a2.967,2.967,0,0,0-1.56.446L11,4.353a1.462,1.462,0,0,0-.69,1.247v5.811a1.84,1.84,0,1,0,3.681,0V7.362h8.466A2.578,2.578,0,0,1,25.03,9.939V11.25l3.681-2.126a1.474,1.474,0,0,0,.538-2.011Z" transform="translate(0.002 -0.002)" fill="#78849e"/>
</svg>
